<?xml version="1.0" encoding="UTF-8"?>
<svg id="Layer_1" data-name="Layer 1" xmlns="http://www.w3.org/2000/svg" viewBox="0 0 474.92 291.18">
  <defs>
    <style>
      .cls-1 {
        fill: #bd8f3e;
      }

      .cls-2 {
        fill: #636569;
      }
    </style>
  </defs>
  <circle class="cls-1" cx="169.24" cy="284.15" r="7.03"/>
  <g>
    <path class="cls-2" d="m105.75,274.95l-5.1,15.8h-1.18l-5.48-14.53-5.48,14.53h-1.34l-5.06-15.8h1.32l4.59,14.4,5.43-14.4h1.09l5.51,14.6,4.69-14.6h1.02Z"/>
    <path class="cls-2" d="m130.07,274.95l-5.1,15.8h-1.18l-5.48-14.53-5.48,14.53h-1.34l-5.06-15.8h1.32l4.59,14.4,5.43-14.4h1.09l5.51,14.6,4.69-14.6h1.02Z"/>
    <path class="cls-2" d="m154.4,274.95l-5.1,15.8h-1.18l-5.48-14.53-5.48,14.53h-1.34l-5.06-15.8h1.32l4.59,14.4,5.43-14.4h1.09l5.51,14.6,4.69-14.6h1.02Z"/>
    <path class="cls-2" d="m214.74,274.95l-5.1,15.8h-1.18l-5.48-14.53-5.48,14.53h-1.34l-5.06-15.8h1.32l4.59,14.4,5.43-14.4h1.09l5.51,14.6,4.69-14.6h1.02Z"/>
    <path class="cls-2" d="m220.04,268.07v8.25c.27-.34.73-.66,1.36-.95,1.02-.45,2.24-.67,3.66-.67,1.61,0,2.99.31,4.13.92,1.22.66,1.83,1.6,1.83,2.84v12.3h-1.18v-12.23c0-1.02-.46-1.82-1.39-2.39-.93-.57-2.1-.86-3.51-.86s-2.59.28-3.51.84c-.92.56-1.39,1.36-1.39,2.38v12.27h-1.18v-22.69h1.18Z"/>
    <path class="cls-2" d="m239.46,268.07v2.74h-1.42v-2.74h1.42Zm-.12,6.88v15.8h-1.18v-15.8h1.18Z"/>
    <path class="cls-2" d="m248.85,269.88v5.07h5.67v.54h-5.67v11.41c0,1.13.48,1.96,1.45,2.49.96.53,2.49.8,4.58.8v.57c-2.52,0-4.39-.34-5.61-1.02-1.06-.59-1.59-1.52-1.59-2.77v-11.47h-4.07v-.54h4.07v-5.07h1.18Z"/>
    <path class="cls-2" d="m264.85,274.69c1.81,0,3.27.32,4.37.96.91.53,1.5,1.26,1.8,2.18.29.92.44,2.53.44,4.83h-12.05c0,2.23.13,3.85.38,4.86s.78,1.73,1.57,2.15c.94.51,2.09.76,3.42.76,1.77,0,3.13-.26,4.07-.76.99-.51,1.48-1.42,1.48-2.74h1.12c0,1.55-.63,2.62-1.89,3.22-1.26.57-2.85.86-4.78.86-1.77,0-3.21-.32-4.31-.95-.91-.51-1.51-1.27-1.8-2.26-.29-1-.44-2.65-.44-4.94s.15-3.94.44-4.94.9-1.75,1.8-2.26c1.1-.64,2.56-.96,4.37-.96Zm0,.57c-1.38,0-2.54.26-3.48.76-.75.43-1.25,1.08-1.5,1.96-.26.88-.4,2.24-.45,4.09h10.86c-.04-1.85-.19-3.21-.44-4.09s-.76-1.54-1.5-1.96c-.94-.51-2.11-.76-3.49-.76Z"/>
    <path class="cls-2" d="m295.2,274.69c1.61,0,2.99.31,4.13.92,1.22.66,1.83,1.6,1.83,2.84v12.3h-1.18v-12.23c0-1.02-.46-1.82-1.39-2.39-.92-.57-2.1-.86-3.51-.86s-2.59.28-3.51.84c-.93.56-1.39,1.36-1.39,2.38v12.27h-1.18v-12.23c0-1.02-.46-1.82-1.39-2.39-.93-.57-2.1-.86-3.51-.86s-2.59.28-3.51.84c-.93.56-1.39,1.36-1.39,2.38v12.27h-1.18v-15.8h1.18v1.37c.28-.34.73-.66,1.36-.95,1.02-.45,2.24-.67,3.66-.67,1.34,0,2.49.2,3.45.59.96.39,1.64.92,2.04,1.58.39-.62,1-1.12,1.83-1.5,1.02-.45,2.24-.67,3.66-.67Z"/>
    <path class="cls-2" d="m313.97,274.69c1.81,0,3.27.32,4.37.96.91.53,1.51,1.26,1.8,2.18.3.92.44,2.53.44,4.83h-12.04c0,2.23.13,3.85.38,4.86s.78,1.73,1.56,2.15c.95.51,2.09.76,3.43.76,1.77,0,3.13-.26,4.07-.76.98-.51,1.48-1.42,1.48-2.74h1.12c0,1.55-.63,2.62-1.89,3.22-1.26.57-2.86.86-4.78.86-1.77,0-3.21-.32-4.31-.95-.91-.51-1.5-1.27-1.8-2.26-.3-1-.45-2.65-.45-4.94s.15-3.94.45-4.94c.29-1,.89-1.75,1.8-2.26,1.1-.64,2.56-.96,4.37-.96Zm0,.57c-1.38,0-2.54.26-3.49.76-.75.43-1.25,1.08-1.5,1.96s-.4,2.24-.44,4.09h10.86c-.04-1.85-.19-3.21-.44-4.09-.26-.88-.76-1.54-1.51-1.96-.94-.51-2.11-.76-3.48-.76Z"/>
    <path class="cls-2" d="m338.71,268.07v22.69h-1.18v-1.34c-.44.43-.93.75-1.48.99-.91.4-2.11.61-3.6.61-1.73,0-3.15-.32-4.25-.95-.87-.47-1.45-1.22-1.74-2.25-.29-1.03-.44-2.68-.44-4.96s.15-3.92.44-4.96c.29-1.03.87-1.78,1.74-2.24,1.1-.64,2.52-.96,4.25-.96,1.5,0,2.7.2,3.6.61.55.24,1.04.56,1.48.99v-8.22h1.18Zm-6.26,7.2c-1.3,0-2.42.26-3.36.76-.79.45-1.3,1.14-1.54,2.09-.24.94-.36,2.52-.36,4.73s.12,3.79.36,4.73c.24.95.75,1.64,1.54,2.09.94.51,2.06.76,3.36.76,1.42,0,2.56-.23,3.42-.7,1.1-.59,1.66-1.5,1.66-2.71v-8.35c0-1.21-.55-2.11-1.66-2.71-.86-.47-2.01-.7-3.42-.7Z"/>
    <path class="cls-2" d="m347.51,268.07v2.74h-1.41v-2.74h1.41Zm-.12,6.88v15.8h-1.18v-15.8h1.18Z"/>
    <path class="cls-2" d="m359.61,274.69c1.89,0,3.35.28,4.37.83,1.14.62,1.71,1.61,1.71,2.99v12.23h-1.18v-1.53c-.24.34-.61.65-1.12.92-1.06.57-2.44.86-4.13.86-1.54,0-2.84-.29-3.9-.86-1.38-.74-2.07-1.94-2.07-3.6s.71-2.77,2.13-3.54c1.18-.64,2.78-.95,4.78-.95h4.31v-3.44c0-2.23-1.64-3.34-4.9-3.34-1.26,0-2.34.25-3.25.73-1.06.57-1.59,1.48-1.59,2.71h-1.18c0-1.4.63-2.44,1.89-3.12,1.1-.59,2.48-.89,4.13-.89Zm4.9,7.94h-4.14c-1.73,0-3.09.26-4.07.8-1.22.66-1.83,1.7-1.83,3.12,0,1.28.43,2.24,1.3,2.9.86.66,2.04.99,3.54.99,1.61,0,2.88-.34,3.81-1.02.93-.68,1.39-1.54,1.39-2.58v-4.2Z"/>
    <path class="cls-2" d="m384.58,268.07v22.69h-1.18v-1.34c-.43.43-.93.75-1.48.99-.91.4-2.11.61-3.6.61-1.73,0-3.15-.32-4.25-.95-.86-.47-1.45-1.22-1.74-2.25-.3-1.03-.45-2.68-.45-4.96s.15-3.92.45-4.96c.29-1.03.87-1.78,1.74-2.24,1.1-.64,2.52-.96,4.25-.96,1.49,0,2.69.2,3.6.61.55.24,1.04.56,1.48.99v-8.22h1.18Zm-6.26,7.2c-1.3,0-2.42.26-3.37.76-.78.45-1.3,1.14-1.54,2.09-.24.94-.35,2.52-.35,4.73s.12,3.79.35,4.73c.24.95.75,1.64,1.54,2.09.95.51,2.07.76,3.37.76,1.41,0,2.56-.23,3.42-.7,1.1-.59,1.65-1.5,1.65-2.71v-8.35c0-1.21-.55-2.11-1.65-2.71-.87-.47-2.01-.7-3.42-.7Z"/>
    <path class="cls-2" d="m402.83,274.95l-6.71,15.8h-1.29l-6.4-15.8h1.33l5.87,14.53,6.17-14.53h1.03Z"/>
    <path class="cls-2" d="m409.48,288.41c0,.65-.23,1.2-.68,1.66s-1.01.68-1.66.68-1.2-.23-1.66-.68c-.46-.46-.68-1.01-.68-1.66s.23-1.2.68-1.66c.46-.45,1.01-.68,1.66-.68s1.2.23,1.66.68c.46.46.68,1.01.68,1.66Z"/>
    <path class="cls-2" d="m420.95,274.69c1.97,0,3.44.29,4.43.86.51.28.89.61,1.12,1,.24.39.37.73.41,1,.04.28.06.68.06,1.21h-1.12c0-1.36-.45-2.3-1.36-2.8-.83-.47-2.01-.7-3.54-.7-1.3,0-2.42.26-3.37.76-.78.43-1.31,1.13-1.56,2.12s-.38,2.56-.38,4.7.13,3.71.38,4.7c.26.99.78,1.69,1.56,2.12.95.51,2.07.76,3.37.76,1.54,0,2.71-.23,3.54-.7.91-.51,1.36-1.44,1.36-2.8h1.12c0,.53-.02.94-.06,1.21s-.18.61-.41,1c-.24.39-.61.73-1.12,1-.98.57-2.46.86-4.43.86-1.73,0-3.15-.32-4.25-.95-.91-.51-1.5-1.27-1.8-2.26-.3-1-.45-2.65-.45-4.94s.15-3.94.45-4.94c.29-1,.89-1.75,1.8-2.26,1.1-.64,2.52-.96,4.25-.96Z"/>
    <path class="cls-2" d="m438.6,274.69c1.81,0,3.27.32,4.37.96.9.51,1.5,1.26,1.8,2.26.3,1,.44,2.65.44,4.94s-.15,3.94-.44,4.94c-.29,1-.9,1.75-1.8,2.26-1.1.64-2.56.95-4.37.95s-3.27-.32-4.37-.95c-.91-.51-1.5-1.27-1.8-2.26-.3-1-.45-2.65-.45-4.94s.15-3.94.45-4.94c.29-1,.89-1.75,1.8-2.26,1.1-.64,2.56-.96,4.37-.96Zm0,.57c-1.38,0-2.54.26-3.49.76-.78.43-1.31,1.13-1.56,2.12s-.38,2.56-.38,4.7.13,3.71.38,4.7c.26.99.78,1.69,1.56,2.12.95.51,2.11.76,3.49.76s2.54-.26,3.48-.76c.79-.43,1.31-1.13,1.57-2.12.26-.99.38-2.55.38-4.7s-.13-3.71-.38-4.7-.78-1.69-1.57-2.12c-.94-.51-2.11-.76-3.48-.76Z"/>
    <path class="cls-2" d="m468.95,274.69c1.61,0,2.99.31,4.13.92,1.22.66,1.83,1.6,1.83,2.84v12.3h-1.18v-12.23c0-1.02-.46-1.82-1.39-2.39-.93-.57-2.1-.86-3.51-.86s-2.59.28-3.51.84c-.93.56-1.39,1.36-1.39,2.38v12.27h-1.18v-12.23c0-1.02-.46-1.82-1.39-2.39-.93-.57-2.1-.86-3.51-.86s-2.59.28-3.51.84c-.93.56-1.39,1.36-1.39,2.38v12.27h-1.18v-15.8h1.18v1.37c.27-.34.73-.66,1.36-.95,1.02-.45,2.24-.67,3.66-.67,1.34,0,2.49.2,3.45.59.96.39,1.64.92,2.04,1.58.39-.62,1-1.12,1.83-1.5,1.02-.45,2.24-.67,3.66-.67Z"/>
  </g>
  <path class="cls-1" d="m57.35,45.57c-1.38-3.17-4.5-5.22-7.96-5.22H8.68c-6.27,0-10.47,6.45-7.93,12.18l81.42,184.32c3.01,6.81,12.63,6.92,15.79.17l20.4-43.55c1.06-2.25,1.09-4.85.1-7.13L57.35,45.57Z"/>
  <path class="cls-1" d="m464.73,222.53l-77.56-175.59c-4.33-9.8-18.19-9.96-22.74-.25l-16.72,35.69c-1.52,3.24-1.57,6.99-.15,10.27l60.73,139.9c1.98,4.56,6.48,7.52,11.46,7.52h33.55c9.03,0,15.07-9.28,11.43-17.54Z"/>
  <path class="cls-1" d="m361.89,226.35l-70.62-159.87c-4.36-12.05-.62-20.98-.62-20.98h0s16.16-34.46,16.16-34.46c1.82-3.87.15-8.48-3.72-10.3-3.87-1.82-8.48-.15-10.3,3.72l-70.58,150.51h-.05c-1.15,3.05-4.11,5.23-7.61,5.23s-6.46-2.18-7.61-5.23h-.05l-47.52-109.46c-1.36-3.13-4.45-5.16-7.87-5.16h-40.93c-6.2,0-10.35,6.37-7.84,12.04l75.44,170.77c.15.52.38,1.21.71,2.13,3.55,9.81,1.73,17.55.93,20.09l-8.16,17.4c-1.82,3.87-.15,8.48,3.72,10.3,3.87,1.82,8.48.15,10.3-3.72l62.32-132.89h.03c1.15-3.05,4.12-5.23,7.63-5.23,3.24,0,6.01,1.87,7.32,4.56l42.71,98.39c1.55,3.57,5.07,5.88,8.97,5.88h38.3c7.06,0,11.79-7.26,8.94-13.72Z"/>
</svg>